inDegrees=no
num_controls=7
num_derivatives=13
num_iterations=69
num_multipliers=7
num_parameters=0
num_slacks=7
num_states=26
objective=0.448715
objective_accelerations=0.018118
objective_balance=0.006884
objective_effort=0.019858
objective_height=0.401929
objective_ligament=0.001925
solver_duration=895.222266
status=Solve_Succeeded
success=true
DataType=double
version=3
OpenSimVersion=4.5
endheader
time	/jointset/ground_pelvis/pelvis_tilt/value	/jointset/ground_pelvis/pelvis_tx/value	/jointset/ground_pelvis/pelvis_ty/value	/jointset/hip_l/hip_flexion_l/value	/jointset/hip_l/hip_adduction_l/value	/jointset/hip_l/hip_rotation_l/value	/jointset/back/lumbar_extension/value	/jointset/patellofemoral_l/patellar_flexion_l/value	/jointset/knee_l/knee_flexion_l/value	/jointset/knee_l/knee_adduction_l/value	/jointset/knee_l/knee_rotation_l/value	/jointset/ankle_l/ankle_angle_l/value	/jointset/subtalar_l/subtalar_angle_l/value	/jointset/ground_pelvis/pelvis_tilt/speed	/jointset/ground_pelvis/pelvis_tx/speed	/jointset/ground_pelvis/pelvis_ty/speed	/jointset/hip_l/hip_flexion_l/speed	/jointset/hip_l/hip_adduction_l/speed	/jointset/hip_l/hip_rotation_l/speed	/jointset/back/lumbar_extension/speed	/jointset/patellofemoral_l/patellar_flexion_l/speed	/jointset/knee_l/knee_flexion_l/speed	/jointset/knee_l/knee_adduction_l/speed	/jointset/knee_l/knee_rotation_l/speed	/jointset/ankle_l/ankle_angle_l/speed	/jointset/subtalar_l/subtalar_angle_l/speed	/forceset/tau_hip_flexion_l	/forceset/tau_hip_adduction_l	/forceset/tau_hip_rotation_l	/forceset/tau_knee_flexion_l	/forceset/tau_ankle_angle_l	/forceset/tau_subtalar_angle_l	/forceset/tau_lumbar_extension	lambda_cid13_p0	lambda_cid13_p1	lambda_cid13_p2	lambda_cid13_p3	lambda_cid13_p4	lambda_cid13_p5	lambda_cid14_p0	/jointset/ground_pelvis/pelvis_tilt/accel	/jointset/ground_pelvis/pelvis_tx/accel	/jointset/ground_pelvis/pelvis_ty/accel	/jointset/hip_l/hip_flexion_l/accel	/jointset/hip_l/hip_adduction_l/accel	/jointset/hip_l/hip_rotation_l/accel	/jointset/back/lumbar_extension/accel	/jointset/patellofemoral_l/patellar_flexion_l/accel	/jointset/knee_l/knee_flexion_l/accel	/jointset/knee_l/knee_adduction_l/accel	/jointset/knee_l/knee_rotation_l/accel	/jointset/ankle_l/ankle_angle_l/accel	/jointset/subtalar_l/subtalar_angle_l/accel	gamma_cid13_p0	gamma_cid13_p1	gamma_cid13_p2	gamma_cid13_p3	gamma_cid13_p4	gamma_cid13_p5	gamma_cid14_p0
1.5	-0.2875486042293968	-0.003530725280087874	0.8482885069708412	0.7870162440993616	-0.2945890635640173	-0.158118253395969	-0.3050430606937932	0.3592626932312695	0.359262693231314	-0.1744897910400822	0.1738406744200515	0.011592967162838	-0.03525269344364548	0.3214341237599416	0.1436184201391695	0.1614364825203144	-1.057238345924889	0.0650218689927734	-0.2946761983866452	0.5963186604766724	-0.8561689099129327	-0.8561689099129179	0.0008197304220070807	-0.004629220948092675	-0.1548015355448161	0.04147074793388258	-0.1644676713167275	0.06304888099634416	-0.01725410025969983	-0.1443265318242458	0.0974620795421077	-0.003398598572234211	0.1718354207017862	-10.05490566026857	-2.131555929865054	6.069080227638973	3.119351661483773	-625.8112405272814	-32.13350576718553	-40.97731543575612	0.2879083648996331	0.2783709037837971	-0.02637493519864398	-0.9003604662279932	0.20041648130894	-0.1811034350870991	1.209079690808675	-0.5898662395768867	-0.5898662395768851	0.02463989888205188	-0.01930428803029413	0.0653918615563162	0.2029878022909026	-2.986325050164671e-09	1.943472515833652e-07	-5.038894482420588e-08	1.861231174980896e-08	2.963239025385621e-08	6.054992796214975e-08	2.248366192216439e-08
1.51	-0.2843202972561957	-0.00208087134469868	0.8499012340501105	0.7764002149773853	-0.2939291954705319	-0.1610738040397648	-0.2990205227438238	0.3506724912399927	0.350672491239986	-0.1744810307500807	0.1737936501747756	0.01004814802483527	-0.0348282470112675	0.3241777727441123	0.1463265462580393	0.1610766110923636	-1.065805872637371	0.06693749424150569	-0.2963701462934537	0.6080884799350446	-0.8617563620851857	-0.8617563620851566	0.0009082083881003501	-0.004794269732286531	-0.1541535636791719	0.04340366056970424	-0.1594578131770495	0.06161867853417474	-0.01746144575471002	-0.1444810865233893	0.09914029558986093	-0.004373590886102932	0.16760834381403	-9.463320037774071	-1.885076272331369	6.113598940199545	3.094508633479154	-624.1001138068546	-32.32405933254275	-41.103562424737	0.2601677637465223	0.2631633037598017	-0.04563270325330907	-0.8107078905437963	0.1849773808956394	-0.1539461683510664	1.145865635996213	-0.5259208940191614	-0.5259208940170204	-0.002638190947011607	-0.01787921149744979	0.06580985005923964	0.1861874757425322	1.306565743559437e-10	2.00267824408702e-07	-6.203654847303733e-08	1.602992471408955e-08	3.937746976274726e-08	6.502541228040626e-08	2.45621194927142e-08
1.52	-0.2810660388734379	-0.0006047101805564861	0.8515093945237685	0.7657033587649287	-0.293250602757713	-0.1640443753026016	-0.2928833000867413	0.3420298674894001	0.3420298674893421	-0.174472103667708	0.1737444206340784	0.008510070605687146	-0.0343849225562284	0.3266244056711067	0.1488798658897692	0.1605231613980497	-1.073403764021275	0.06876679285984989	-0.297680322195196	0.6192556018992057	-0.8666532617762255	-0.866653261776182	0.0008530888973950857	-0.005070280031821833	-0.1534531917738965	0.04524635246611636	-0.1544479550373598	0.06018847607200779	-0.01766879124973906	-0.1446356412225211	0.100818511637618	-0.005348583199968321	0.1633812669262801	-8.873902811790034	-1.63827775509176	6.158136358051465	3.057624810145649	-622.4329212865991	-32.5290922901229	-41.2211946226921	0.2285051534644238	0.2474096063557967	-0.06509058847128446	-0.7064334005124424	0.1831511552312771	-0.1043490340738557	1.088540191966523	-0.4517557433342294	-0.4517557433342058	-0.004079592477757283	-0.04149659109856801	0.07587186948253899	0.184943654408943	2.443632252542957e-09	2.057906598962094e-07	-7.040154534084253e-08	1.401701006363475e-08	4.827400754873274e-08	6.828107121427008e-08	2.615624479431957e-08
1.53	-0.2777888149817317	0.0008961482670119861	0.8531110655817402	0.7549354830075979	-0.292554034825029	-0.1670265132431528	-0.2866377010054553	0.3333418030560856	0.3333418030559783	-0.1744640948628079	0.1736921811901283	0.006979234222140164	-0.03392350835298898	0.3287648605162348	0.1512592260308366	0.1597789615039364	-1.07998769442113	0.07054538005768086	-0.2987201824712661	0.6297397389595524	-0.8708285081170414	-0.8708285081170363	0.0007636654387207886	-0.005364170120914008	-0.1527045788495894	0.0470350203016816	-0.1491416362844851	0.05861507636900923	-0.01793400790304648	-0.1450699027670702	0.10274440224687	-0.006373602234943149	0.1588910154713006	-8.207099440704694	-1.382716451815998	6.200607409169408	3.032734906355409	-620.7301807271105	-32.75802477858359	-41.32985965183344	0.19848804831767	0.2283119501063913	-0.0838858839310587	-0.6068186624692491	0.1749795414696641	-0.09971324021405803	1.009679153272235	-0.380747126735799	-0.3807471267415762	-0.009095880673575639	-0.02129477971739709	0.07578283801644436	0.1755838417017215	3.90235161275053e-09	2.10890899462273e-07	-7.527877250380736e-08	1.260915982252357e-08	5.626896975413108e-08	7.024066567721669e-08	2.723576706017148e-08
1.54	-0.2744918520619172	0.00241982286241603	0.854704334401961	0.7441072787857201	-0.2918397276124873	-0.1700182315296321	-0.2802909948155246	0.3246159185499072	0.3246159185497502	-0.1744565247241188	0.1736374109329047	0.005456169334658471	-0.03344425637267967	0.3305722112925847	0.1534430954568834	0.1588427138478775	-1.085469456930876	0.07231464883194255	-0.2995963913809553	0.6394770236280382	-0.8742172763490789	-0.8742172763491121	0.0007653556555943066	-0.005576442686121359	-0.1518988925608159	0.04881390788010441	-0.1438353175316065	0.05704167666600559	-0.01819922455636676	-0.1455041643116131	0.1046702928561221	-0.007398621269922983	0.1544007640163241	-7.541819850057039	-1.126710395648726	6.242804335318521	2.994897793220673	-619.0614044062455	-33.00061073826283	-41.42937370702209	0.161884339708822	0.2083114633516859	-0.1035001408603812	-0.4859998224908366	0.1812874705173661	-0.07161876079763412	0.9391697135943502	-0.2944601215785174	-0.2944601215784955	0.01414314263169194	-0.02517308632159029	0.08728654237581361	0.1829876029803978	5.059156665539649e-09	2.166081660225681e-07	-8.017129380275915e-08	1.131195828624592e-08	6.416143666033069e-08	7.25148395535052e-08	2.82545419089734e-08
1.55	-0.2711784656451533	0.003964307447754662	0.8562872885649899	0.7332297979952727	-0.2911078521760758	-0.173017554492121	-0.2738508832002108	0.3158600412418998	0.3158600412418564	-0.1744486879511741	0.1735806196048832	0.003941375450982808	-0.03294735848861706	0.3320462581596306	0.1554155122816719	0.1577157355448013	-1.0898289080295	0.07405209434263527	-0.3002057829533722	0.6484019529042659	-0.8768225889886739	-0.8768225889887434	0.0008016168266088061	-0.005798259304767707	-0.1510545115647174	0.0505561910362313	-0.1383210378224478	0.05539638948510945	-0.01850074055217357	-0.1461451221172077	0.1067633612608938	-0.008522921740187008	0.1497228414016594	-6.828060205413584	-0.8358482992060746	6.279185339017483	2.985569425950754	-617.3829834910626	-33.20324606609852	-41.51957020879719	0.1313416489462821	0.1859622911433005	-0.1221389060296561	-0.381248570403715	0.1686991770647396	-0.04620557901755892	0.8476525550427443	-0.2232333416631381	-0.2232333416686237	-0.001659581946237268	-0.02312418732843627	0.08382067309745643	0.1684017787927187	5.868103929346656e-09	2.230363549892604e-07	-8.508143660621762e-08	1.01422433011895e-08	7.193581115658396e-08	7.515146362342677e-08	2.920332516856553e-08
1.56	-0.2678521034019687	0.005527367301161414	0.8578580044987886	0.7223146565304678	-0.2903588570674173	-0.1760210926150458	-0.267325822688053	0.3070821775061939	0.3070821775062635	-0.1744404940037729	0.1735211224631353	0.002435186736242031	-0.03243332715162045	0.3331673765764235	0.1571581490705076	0.1563950680018407	-1.093001591802346	0.07573858328211697	-0.3004394234679433	0.6564668029967231	-0.8786145618887947	-0.8786145618889009	0.0008367905463202176	-0.00611760543110643	-0.1501778587737949	0.05224059846691493	-0.132806758113298	0.05375110230419762	-0.01880225654798633	-0.1467860799228048	0.1088564296656602	-0.009647222210467727	0.1450449187869919	-6.115141162758754	-0.5444703720276217	6.31506310415293	2.962674900023624	-615.7273425631724	-33.41836995941348	-41.60028078852827	0.09129864965823126	0.1623554561611111	-0.1422379888372393	-0.2486463573353868	0.1710961562751003	0.003531450771564218	0.7671538768402606	-0.1317921736836468	-0.1317921736836756	0.01392565237094967	-0.04467898786005434	0.09374090134060263	0.1714124578916789	6.734226623687335e-09	2.272984399031685e-07	-8.877463641522643e-08	8.88750052760322e-09	7.955443652820517e-08	7.691040517074219e-08	2.988544925910093e-08
